<?xml version="1.0" encoding="utf-8"?>
<!-- Generator: Adobe Illustrator 18.0.0, SVG Export Plug-In . SVG Version: 6.00 Build 0)  -->
<!DOCTYPE svg PUBLIC "-//W3C//DTD SVG 1.1//EN" "http://www.w3.org/Graphics/SVG/1.1/DTD/svg11.dtd">
<svg version="1.1" id="Layer_1" xmlns="http://www.w3.org/2000/svg" xmlns:xlink="http://www.w3.org/1999/xlink" x="0px" y="0px"
	 viewBox="0 0 456.2 114.1" enable-background="new 0 0 456.2 114.1" xml:space="preserve">
<g>
	<path fill="#020405" d="M229,19.1c0,0,31.6-42.4,100-0.8c66.3,40.3,79,43.7,89.5,39.4c23.7-9.7,1.4-55.9-22.8-34.1
		c0,0,13.9-35.8,46.2-4.7c30.2,29,3.4,63.3,3.4,63.3c0.8-0.1-18.9,25.2-54.7,29.6c-14.7,1.8-24.4,5-66.3-1.7
		c-54.7-8.7-96.3-41.4-96.3-41.4V18.5l1.1-0.3"/>
	<path fill="#020405" d="M227.2,19.1c0,0-31.6-42.4-100-0.8C60.9,58.6,48.2,62,37.7,57.7C14,48,36.3,1.8,60.5,23.6
		c0,0-13.9-35.8-46.2-4.7c-30.2,29-3.4,63.3-3.4,63.3c-0.8-0.1,18.9,25.2,54.7,29.6c14.7,1.8,24.3,5,66.2-1.7
		c54.7-8.7,96.2-41.4,96.2-41.4V18.5l-1-0.3"/>
</g>
<rect x="224.1" y="17.9" fill="#020405" width="9.9" height="50.5"/>
</svg>
